<svg width="15" height="14" viewBox="0 0 15 14" fill="none" xmlns="http://www.w3.org/2000/svg">
<path fill-rule="evenodd" clip-rule="evenodd" d="M8.86171 0C9.53573 0 10.1714 0.327059 10.6963 0.744921C11.2207 1.16231 11.626 1.66356 11.8373 1.99531C11.9072 2.10505 11.9643 2.32987 11.9888 2.61419C12.0129 2.8939 12.0041 3.2152 11.9538 3.50632C11.9452 3.55584 11.9764 3.60329 12.0236 3.61229C12.0707 3.62129 12.1158 3.58844 12.1244 3.53891C12.1778 3.23002 12.1868 2.89214 12.1615 2.59776C12.143 2.38224 12.1052 2.18087 12.0477 2.03013C12.5595 2.02042 13.2614 2.13182 13.8515 2.49327C14.4889 2.88364 15 3.56731 15 4.72677C15 5.87559 14.5137 6.47041 14.2491 6.65297C14.2087 6.62413 14.1599 6.59454 14.1094 6.56611C14.0333 6.52328 13.9471 6.47964 13.8666 6.44072C13.8124 6.41454 13.7605 6.39035 13.7154 6.36972C13.8288 6.2667 13.9414 6.09342 13.9414 5.84086C13.9414 5.60771 13.8314 5.35963 13.6321 5.19772C13.4298 5.03336 13.141 4.96173 12.7923 5.07173C12.7464 5.0862 12.7204 5.13701 12.7341 5.18522C12.7479 5.23343 12.7962 5.26079 12.8421 5.24633C13.1418 5.15179 13.3717 5.21652 13.5261 5.34195C13.6834 5.46981 13.768 5.66492 13.768 5.84086C13.768 6.12061 13.5835 6.26585 13.4983 6.30172L13.2988 6.38562L13.4978 6.47077C13.4978 6.47077 13.4978 6.47079 13.4978 6.4708C13.4979 6.47083 13.498 6.47086 13.4981 6.47091C13.4984 6.47102 13.4987 6.47119 13.4993 6.47141C13.5003 6.47185 13.5018 6.47251 13.5038 6.47338C13.5079 6.47514 13.5139 6.47774 13.5216 6.48111C13.5371 6.48786 13.5594 6.49767 13.5866 6.50988C13.6412 6.53431 13.7154 6.56825 13.7941 6.60633C13.873 6.64448 13.9557 6.68641 14.0275 6.72683C14.1011 6.76822 14.1573 6.80479 14.1875 6.83183C14.323 6.95343 14.6109 7.35019 14.6109 7.91609C14.6109 8.39031 14.4864 8.7069 14.3082 8.92052C14.129 9.13542 13.8877 9.25548 13.6392 9.3205C13.3905 9.38556 13.1398 9.39409 12.9487 9.38993C12.8527 9.38783 12.7742 9.38266 12.7157 9.37992C12.6877 9.37862 12.6617 9.37773 12.642 9.37867C12.6331 9.3791 12.6191 9.3801 12.6053 9.38416C12.5988 9.38607 12.5851 9.39065 12.5713 9.40178C12.5553 9.41469 12.5359 9.43997 12.5359 9.47682V9.48294L12.5367 9.48903C12.6106 10.0634 12.5558 10.9234 12.1572 11.636C11.7626 12.3414 11.0248 12.9143 9.70468 12.9143C9.11117 12.9143 8.74602 12.8692 8.53183 12.815C8.4243 12.7878 8.35934 12.7595 8.32346 12.7366C8.3215 12.7354 8.31968 12.7341 8.31796 12.733C8.42615 12.553 8.58995 12.1992 8.61951 11.8216C8.8747 11.8864 9.2932 11.953 9.6786 11.8438C9.9035 11.7802 10.1199 11.6559 10.2837 11.4347C10.4312 11.2357 10.5312 10.9647 10.5619 10.6036C10.7729 10.6567 11.0193 10.5883 11.1813 10.4342C11.2807 10.3397 11.3516 10.21 11.3626 10.0526C11.3735 9.89561 11.3241 9.72176 11.2023 9.53873C11.1748 9.49749 11.1208 9.48746 11.0815 9.51632C11.0423 9.54518 11.0328 9.602 11.0602 9.64325C11.1653 9.80114 11.197 9.93415 11.1897 10.0393C11.1824 10.1439 11.1358 10.2316 11.065 10.299C10.918 10.4388 10.6804 10.4794 10.5216 10.3959L10.4018 10.3329L10.3962 10.4736C10.3805 10.8687 10.2832 11.1388 10.1469 11.3227C10.0109 11.5063 9.83009 11.6122 9.63351 11.6678C9.23547 11.7805 8.78428 11.6841 8.56133 11.6171L8.45079 11.5839V11.7047C8.45079 12.1111 8.24887 12.5205 8.14526 12.6771C7.95502 12.8974 7.60643 13.2285 7.17902 13.5046C6.74797 13.783 6.24533 14 5.74922 14C4.44102 14 3.96644 13.052 3.68394 12.5517L3.68314 12.5503L3.68228 12.5489L3.6794 12.544C3.64846 12.4883 3.58257 12.2921 3.63007 11.9924C3.63794 11.9428 3.60602 11.8958 3.55879 11.8875C3.51156 11.8793 3.46688 11.9128 3.45901 11.9625C3.42199 12.1961 3.44448 12.3846 3.48054 12.511C3.06747 12.5145 2.5211 12.4332 2.06421 12.1547C1.56621 11.8511 1.16718 11.3097 1.16718 10.359C1.16719 9.93277 1.26907 9.39934 1.33645 9.11546C1.35646 9.11859 1.37679 9.12031 1.39699 9.12096C1.45415 9.12279 1.51688 9.11645 1.581 9.10527C1.7092 9.08292 1.85199 9.03959 1.9836 8.99287C2.11575 8.94596 2.23928 8.89466 2.32959 8.85519C2.33887 8.85113 2.3478 8.84718 2.35637 8.84339C2.3597 9.03264 2.37636 9.26881 2.45977 9.47347C2.51349 9.60529 2.59603 9.72742 2.72236 9.81598C2.84874 9.90457 3.01225 9.95487 3.22032 9.95487C3.54435 9.95487 3.75234 9.87211 3.87708 9.75195C4.00231 9.63129 4.0341 9.48155 4.01943 9.37355C4.01266 9.32372 3.96875 9.2891 3.92134 9.29622C3.87394 9.30333 3.841 9.34949 3.84776 9.39932C3.8547 9.45042 3.84111 9.53934 3.75992 9.61756C3.67824 9.69626 3.51878 9.77258 3.22032 9.77258C3.03934 9.77258 2.91105 9.72914 2.81858 9.66432C2.72607 9.59947 2.6627 9.50852 2.61916 9.40169C2.53009 9.18316 2.5289 8.91273 2.5289 8.7046V8.5623L2.40593 8.62181L2.40583 8.62186C2.40575 8.6219 2.40561 8.62197 2.40543 8.62206C2.40504 8.62224 2.40443 8.62254 2.40361 8.62293C2.40199 8.62371 2.39953 8.62488 2.39628 8.62642C2.38978 8.6295 2.38013 8.63405 2.36771 8.63981C2.34286 8.65132 2.30695 8.66767 2.26301 8.68687C2.175 8.72534 2.05535 8.77499 1.92812 8.82016C1.80036 8.86551 1.66757 8.90539 1.55262 8.92544C1.49515 8.93546 1.4444 8.9401 1.40227 8.93875C1.35919 8.93737 1.3313 8.92986 1.31511 8.92099C1.0984 8.8022 0.767746 8.54907 0.492103 8.18039C0.217089 7.81256 1.8726e-06 7.3342 0 6.7625C0 5.73299 0.428271 5.12091 0.703091 4.87999C0.916994 5.60078 1.86323 6.46097 3.26111 5.97087C3.26074 6.61523 3.4081 7.51458 3.85665 8.27533C4.34034 9.09566 5.17239 9.75032 6.52734 9.75033C7.14181 9.75033 7.80101 9.47764 8.29462 9.21532C8.40227 9.4494 8.7087 9.68214 9.31563 9.68214C9.70288 9.68214 10.0162 9.47839 10.2303 9.23528C10.3375 9.11352 10.4215 8.98018 10.479 8.85361C10.5358 8.72851 10.5695 8.6038 10.5695 8.50004C10.5695 8.20279 10.5009 7.99936 10.428 7.86781C10.421 7.8551 10.4139 7.8431 10.4069 7.83178C10.5217 7.81199 10.6486 7.76473 10.7621 7.67441C10.9489 7.52573 11.0883 7.26965 11.0883 6.86364C11.0883 6.46607 10.9868 6.21253 10.8443 6.06138C10.7433 5.95427 10.6266 5.90395 10.524 5.88895C10.5929 5.49422 10.5889 4.9512 10.3657 4.48719C10.1165 3.96927 9.60288 3.56783 8.66718 3.56783C8.4265 3.56783 8.17994 3.66044 7.94978 3.79197C7.71878 3.92398 7.49799 4.09886 7.3072 4.2718C7.11614 4.44499 6.95336 4.6179 6.83842 4.7474C6.82556 4.76188 6.8133 4.77584 6.80165 4.7892C6.78084 4.57454 6.71904 4.32902 6.59307 4.11404C6.41381 3.80813 6.106 3.56783 5.61953 3.56783C5.30125 3.56783 5.04748 3.74563 4.8636 3.95514C4.67983 4.16454 4.55761 4.41438 4.50037 4.58291C4.48427 4.63032 4.50779 4.68246 4.55289 4.69939C4.59798 4.71631 4.64759 4.69161 4.66369 4.6442C4.71452 4.49454 4.82576 4.2671 4.99105 4.07876C5.15625 3.89053 5.36719 3.75012 5.61953 3.75012C6.04087 3.75012 6.29505 3.95303 6.44541 4.20964C6.59892 4.47161 6.64546 4.79319 6.63527 5.01833L6.6228 5.29347L6.78893 5.08044C6.78895 5.08041 6.78899 5.08037 6.78903 5.08031C6.78913 5.08019 6.7893 5.07998 6.78953 5.07969C6.78998 5.07911 6.79068 5.07819 6.79164 5.07698C6.79356 5.07456 6.79648 5.0709 6.80035 5.06607C6.80809 5.05641 6.81966 5.04211 6.83476 5.02383C6.86497 4.98726 6.90926 4.9348 6.9652 4.87176C7.07721 4.74557 7.23543 4.57757 7.42046 4.40984C7.60576 4.24186 7.8162 4.07581 8.03261 3.95213C8.24987 3.82798 8.46694 3.75012 8.66718 3.75012C9.54711 3.75012 9.99536 4.12144 10.2109 4.56947C10.431 5.02694 10.4172 5.58273 10.3336 5.95636L10.3054 6.0821L10.4275 6.06782C10.5008 6.05926 10.6198 6.08216 10.7211 6.18969C10.8218 6.2965 10.9148 6.49755 10.9148 6.86364C10.9148 7.22128 10.7948 7.41978 10.6574 7.52906C10.5159 7.64169 10.3439 7.66911 10.2306 7.65919L9.90351 7.63053L10.174 7.82492C10.174 7.82489 10.1739 7.82486 10.1739 7.82483L10.1742 7.82508C10.175 7.82573 10.1767 7.8271 10.1792 7.82923C10.184 7.83349 10.1919 7.8408 10.2018 7.8515C10.2216 7.87289 10.2496 7.90794 10.2782 7.95954C10.335 8.06209 10.3961 8.23367 10.3961 8.50004C10.3961 8.56674 10.3731 8.66366 10.3225 8.77506C10.2726 8.885 10.1985 9.00309 10.1031 9.11145C9.91187 9.32858 9.64165 9.49985 9.31563 9.49985C8.74315 9.49985 8.51816 9.28415 8.44891 9.13082C8.63502 9.02585 8.79175 8.92655 8.90537 8.8509C8.96877 8.80869 9.01883 8.77382 9.05316 8.74939C9.07032 8.73718 9.08357 8.72758 9.09258 8.72098C9.09709 8.71768 9.10054 8.71513 9.10289 8.71338C9.10407 8.71251 9.10498 8.71184 9.1056 8.71137C9.10591 8.71114 9.10616 8.71095 9.10633 8.71082C9.10642 8.71075 9.1065 8.7107 9.10655 8.71066C9.10658 8.71064 9.1066 8.71062 9.10662 8.7106L9.10664 8.71059C9.10658 8.71049 9.10485 8.70795 9.05624 8.63642L9.10664 8.71059C9.1456 8.68132 9.15463 8.62439 9.12679 8.58343C9.09895 8.54247 9.0448 8.533 9.00584 8.56226C9.00583 8.56227 9.00579 8.5623 9.00574 8.56233C9.00564 8.56241 9.00546 8.56254 9.00522 8.56272C9.00473 8.56309 9.00395 8.56366 9.00291 8.56443C9.00084 8.56597 8.99768 8.5683 8.99348 8.57138C8.98507 8.57753 8.97247 8.58668 8.95597 8.59842C8.92296 8.6219 8.87437 8.65577 8.81258 8.69691C8.68895 8.77923 8.51272 8.89049 8.30277 9.00599C7.80693 9.27877 7.13563 9.56803 6.52734 9.56803C5.23668 9.56803 4.45843 8.94992 4.00405 8.17929C3.54639 7.40309 3.41548 6.46768 3.43666 5.84412L3.44132 5.70696L3.31925 5.75565C1.86565 6.33541 0.951838 5.35954 0.841616 4.71074C0.757014 4.21273 0.755168 3.46944 1.01694 2.85553C1.14716 2.55014 1.34173 2.27865 1.6224 2.08313C1.90287 1.88775 2.27493 1.76431 2.76642 1.76431C2.96225 1.76431 3.22363 1.79095 3.4015 1.81341C3.35162 1.90672 3.30038 2.01765 3.26044 2.13295C3.20217 2.30114 3.16214 2.49466 3.20105 2.65833C3.21266 2.70716 3.25974 2.73684 3.30619 2.72464C3.35265 2.71243 3.38088 2.66296 3.36928 2.61412C3.34334 2.50505 3.36816 2.35469 3.42337 2.19533C3.47729 2.03969 3.5548 1.8907 3.61659 1.79173C3.69766 1.66447 3.85914 1.46899 4.07494 1.30613C4.29073 1.14328 4.55428 1.01786 4.84142 1.01786C5.12855 1.01786 5.39209 1.14328 5.60788 1.30613C5.82369 1.46899 5.98518 1.66447 6.06625 1.79173L6.14501 1.91538L6.214 1.78543C6.37088 1.48993 6.6942 1.04146 7.14969 0.667768C7.6047 0.294473 8.18623 1.19404e-06 8.86171 0ZM8.47867 1.96266C8.28377 1.70318 7.99913 1.49216 7.62303 1.52258C7.18035 1.55839 6.89836 1.73911 6.72797 1.956C6.55984 2.17001 6.50548 2.41272 6.50548 2.56803C6.50548 2.67683 6.50515 2.79785 6.54096 2.93947C6.57691 3.08168 6.64776 3.23956 6.78319 3.4308C6.81178 3.47118 6.8661 3.47955 6.90451 3.4495C6.94292 3.41944 6.95089 3.36232 6.92229 3.32195C6.79717 3.14526 6.73774 3.00806 6.70856 2.89263C6.67923 2.77661 6.67889 2.67743 6.67889 2.56803C6.67889 2.45061 6.7218 2.25012 6.86168 2.07207C6.9993 1.89691 7.23605 1.73672 7.63634 1.70434C7.93462 1.68021 8.16873 1.84419 8.34256 2.07563C8.51717 2.3081 8.62141 2.5975 8.65629 2.78967L8.82769 2.76309C8.7923 2.40797 8.86838 2.17887 8.9782 2.03998C9.0885 1.90049 9.24128 1.84097 9.38047 1.84097C9.55975 1.84097 9.6783 1.95802 9.75667 2.14462C9.83581 2.33304 9.86438 2.57458 9.86438 2.77258L10.0312 2.80617C10.0316 2.80634 10.0316 2.80636 10.0316 2.80637C10.0316 2.80638 10.0316 2.80643 10.0316 2.80645C10.0317 2.8062 10.0318 2.80585 10.032 2.80539C10.0327 2.80377 10.034 2.80089 10.0358 2.79695C10.0396 2.78905 10.0458 2.77688 10.0549 2.76175C10.073 2.73146 10.1024 2.68972 10.1463 2.64681C10.233 2.56209 10.3795 2.4692 10.6176 2.45448C10.8262 2.44157 10.9672 2.48015 11.0615 2.54154C11.1546 2.60213 11.2108 2.6904 11.2412 2.79561C11.3038 3.01266 11.2528 3.29304 11.1801 3.48959C11.1628 3.5365 11.1849 3.58932 11.2295 3.60756C11.2741 3.6258 11.3244 3.60255 11.3418 3.55563C11.4204 3.34307 11.4861 3.01661 11.4071 2.74274C11.3667 2.60249 11.2876 2.47428 11.1528 2.38656C11.0192 2.29965 10.8397 2.25812 10.6074 2.27249C10.3267 2.28985 10.1426 2.40152 10.0282 2.51333C10.0267 2.51483 10.0252 2.51633 10.0237 2.51783C10.0069 2.3673 9.97348 2.20945 9.91532 2.07097C9.82186 1.84846 9.65509 1.65868 9.38047 1.65868C9.19544 1.65868 8.99157 1.7379 8.84484 1.92346C8.76795 2.02072 8.70904 2.14422 8.67585 2.29563C8.62302 2.18203 8.5574 2.06749 8.47867 1.96266Z" fill="black"/>
</svg>
